<?xml version="1.0" encoding="UTF-8"?><svg xmlns="http://www.w3.org/2000/svg" viewBox="0 0 300 300"><defs><style>.f{fill:#009ac5;}.g{fill:#d6a0c9;}.h{fill:#85cddc;}.i{fill:#55abe0;}.j{fill:#354194;}.k{fill:#5d71b5;}</style></defs><g id="a"/><g id="b"/><g id="c"/><g id="d"/><g id="e"><g><g><polygon class="j" points="60.23 268.88 51.23 254.06 48.51 254.06 48.51 277.84 52.42 277.84 52.42 262.62 58.87 273.22 61.59 273.22 68.05 262.62 68.05 277.84 71.95 277.84 71.95 254.06 69.23 254.06 60.23 268.88"/><path class="j" d="M88,262.25c-1.17-.7-2.51-1.05-4.03-1.05s-2.98,.37-4.26,1.12c-1.28,.75-2.29,1.76-3.04,3.04-.75,1.28-1.12,2.72-1.12,4.33s.38,3.06,1.14,4.35c.76,1.29,1.79,2.31,3.09,3.04,1.3,.74,2.77,1.11,4.4,1.11,1.27,0,2.47-.24,3.6-.71,1.13-.48,2.1-1.18,2.89-2.11l-2.38-2.41c-.5,.57-1.1,1-1.82,1.29-.71,.3-1.49,.44-2.33,.44-.97,0-1.83-.21-2.58-.63-.75-.42-1.32-1.01-1.73-1.78-.19-.37-.34-.77-.44-1.19h12.16c.07-.34,.12-.65,.15-.93,.03-.28,.05-.56,.05-.83,0-1.56-.33-2.96-1-4.18-.67-1.22-1.59-2.18-2.75-2.89Zm-8.2,4.7c.38-.73,.93-1.31,1.63-1.72,.7-.41,1.53-.61,2.48-.61s1.67,.18,2.29,.54c.62,.36,1.1,.88,1.44,1.56,.19,.38,.32,.82,.42,1.29h-8.65c.09-.38,.21-.74,.38-1.07Z"/><path class="j" d="M106.61,262.13c-.95-.62-2.04-.93-3.26-.93s-2.28,.28-3.24,.83c-.64,.37-1.16,.87-1.61,1.42v-1.91h-3.74v16.31h3.74v-9.41c0-.72,.16-1.37,.48-1.94,.32-.57,.76-1.01,1.33-1.33,.57-.32,1.21-.48,1.94-.48,1.09,0,1.98,.35,2.67,1.05,.69,.7,1.04,1.6,1.04,2.68v9.41h3.74v-10.23c0-1.07-.27-2.09-.82-3.08-.54-.99-1.29-1.79-2.24-2.41Z"/><polygon class="j" points="119.48 254.74 115.74 254.74 115.74 261.54 111.84 261.54 111.84 264.94 115.74 264.94 115.74 277.84 119.48 277.84 119.48 264.94 123.39 264.94 123.39 261.54 119.48 261.54 119.48 254.74"/><path class="j" d="M137.45,263.42c-.48-.56-1.01-1.06-1.68-1.43-.96-.53-2.07-.8-3.31-.8-1.47,0-2.8,.38-3.99,1.14-1.19,.76-2.13,1.78-2.82,3.06-.69,1.28-1.04,2.72-1.04,4.33s.35,3.02,1.04,4.3c.69,1.28,1.63,2.29,2.82,3.04,1.19,.75,2.52,1.12,3.99,1.12,1.24,0,2.36-.27,3.33-.8,.66-.36,1.19-.85,1.66-1.4v1.86h3.74v-16.31h-3.74v1.89Zm-1.04,9.83c-.85,.93-1.97,1.39-3.35,1.39-.91,0-1.7-.21-2.39-.63-.69-.42-1.24-1-1.63-1.75-.4-.75-.6-1.61-.6-2.58s.2-1.83,.6-2.58c.39-.75,.94-1.33,1.63-1.75,.69-.42,1.49-.63,2.39-.63s1.74,.21,2.43,.63c.69,.42,1.23,1,1.61,1.75,.38,.75,.58,1.61,.58,2.58,0,1.45-.42,2.64-1.27,3.57Z"/><rect class="j" x="145.33" y="253.38" width="3.74" height="24.46"/><polygon class="j" points="175.64 263.75 164.43 263.75 164.43 254.06 160.52 254.06 160.52 277.84 164.43 277.84 164.43 267.31 175.64 267.31 175.64 277.84 179.55 277.84 179.55 254.06 175.64 254.06 175.64 263.75"/><path class="j" d="M195.6,262.25c-1.17-.7-2.51-1.05-4.03-1.05s-2.98,.37-4.26,1.12c-1.28,.75-2.29,1.76-3.04,3.04-.75,1.28-1.12,2.72-1.12,4.33s.38,3.06,1.14,4.35c.76,1.29,1.79,2.31,3.09,3.04,1.3,.74,2.77,1.11,4.4,1.11,1.27,0,2.47-.24,3.6-.71,1.13-.48,2.1-1.18,2.89-2.11l-2.38-2.41c-.5,.57-1.1,1-1.82,1.29-.71,.3-1.49,.44-2.33,.44-.97,0-1.83-.21-2.58-.63-.75-.42-1.32-1.01-1.73-1.78-.19-.37-.34-.77-.44-1.19h12.16c.07-.34,.12-.65,.15-.93,.03-.28,.05-.56,.05-.83,0-1.56-.33-2.96-1-4.18-.67-1.22-1.59-2.18-2.75-2.89Zm-8.2,4.7c.38-.73,.93-1.31,1.63-1.72,.7-.41,1.53-.61,2.48-.61s1.67,.18,2.29,.54c.62,.36,1.1,.88,1.44,1.56,.19,.38,.32,.82,.42,1.29h-8.65c.09-.38,.21-.74,.38-1.07Z"/><path class="j" d="M214.16,263.42c-.48-.56-1.01-1.06-1.68-1.43-.96-.53-2.07-.8-3.31-.8-1.47,0-2.8,.38-3.99,1.14-1.19,.76-2.13,1.78-2.82,3.06-.69,1.28-1.04,2.72-1.04,4.33s.35,3.02,1.04,4.3c.69,1.28,1.63,2.29,2.82,3.04,1.19,.75,2.52,1.12,3.99,1.12,1.24,0,2.36-.27,3.33-.8,.66-.36,1.19-.85,1.66-1.4v1.86h3.74v-16.31h-3.74v1.89Zm-1.04,9.83c-.85,.93-1.97,1.39-3.35,1.39-.91,0-1.7-.21-2.39-.63-.69-.42-1.24-1-1.63-1.75-.4-.75-.6-1.61-.6-2.58s.2-1.83,.6-2.58c.39-.75,.94-1.33,1.63-1.75,.69-.42,1.49-.63,2.39-.63s1.74,.21,2.43,.63c.69,.42,1.23,1,1.61,1.75,.38,.75,.58,1.61,.58,2.58,0,1.45-.42,2.64-1.27,3.57Z"/><rect class="j" x="222.05" y="253.38" width="3.74" height="24.46"/><polygon class="j" points="236.15 254.74 232.41 254.74 232.41 261.54 228.5 261.54 228.5 264.94 232.41 264.94 232.41 277.84 236.15 277.84 236.15 264.94 240.05 264.94 240.05 261.54 236.15 261.54 236.15 254.74"/><path class="j" d="M256.87,264.27c-.54-.96-1.29-1.72-2.24-2.26-.95-.54-2.04-.81-3.26-.81s-2.28,.28-3.24,.83c-.64,.37-1.16,.87-1.61,1.42v-10.07h-3.74v24.46h3.74v-9.41c0-.72,.16-1.37,.48-1.94,.32-.57,.76-1.01,1.33-1.33,.57-.32,1.21-.48,1.94-.48,1.09,0,1.98,.35,2.67,1.05,.69,.7,1.04,1.6,1.04,2.68v9.41h3.74v-10.23c0-1.27-.27-2.38-.82-3.35Z"/><path class="j" d="M197.72,184.09c-4.95-3.23-10.4-4.87-16.18-4.87h-23.65v62.12h23.65c3.32,0,6.62-.57,9.82-1.68,6.03-2.11,11.06-5.96,14.94-11.45,3.88-5.49,5.85-11.52,5.85-17.95,0-4.62-1.07-9.16-3.19-13.52-2.6-5.25-6.38-9.51-11.24-12.66Zm-4.94,38.26c-3.41,4.55-8.57,6.86-15.35,6.86h-4.65v-37.85h4.65c6.75,0,11.91,2.31,15.35,6.86,2.57,3.42,3.87,7.47,3.87,12.05s-1.3,8.64-3.87,12.09Z"/><path class="j" d="M99.98,241.35l-19.85-25.9,1.3-.29c3.6-.8,6.45-2.24,8.48-4.26,3.19-3.19,4.81-7.54,4.81-12.93,0-4.71-1.42-8.86-4.21-12.34-3.44-4.29-8.85-6.47-16.1-6.47h-24.99v62.2h14.91v-26.57l17.19,26.57h18.45Zm-23.54-36.07c-1.7,1.61-4.44,2.43-8.15,2.43h-3.95v-17.62h3.95c3.69,0,6.43,.81,8.15,2.42,1.83,1.72,2.76,3.86,2.76,6.36s-.93,4.66-2.75,6.4Z"/><path class="j" d="M131.23,226.28l7.92-11.64c3.44-5.04,5.18-10.27,5.18-15.54,0-5.85-2.26-10.7-6.73-14.41-4.42-3.68-10.24-5.55-17.28-5.55-4.13,0-8.22,.5-12.17,1.49l-.53,.13v14.33l.95-.36c3.16-1.19,5.9-1.79,8.16-1.79,3.49,0,6.34,.81,8.47,2.41,2.25,1.63,3.36,3.88,3.36,6.87,0,3.28-2.56,7.85-4.7,11.1l-16.24,26.27v1.75h34.87l6.7-15.07h-17.97Z"/><path class="j" d="M240.81,226.28l7.92-11.64c3.44-5.04,5.18-10.26,5.18-15.54,0-5.85-2.26-10.7-6.73-14.41-4.42-3.68-10.24-5.55-17.28-5.55-4.13,0-8.22,.5-12.17,1.49l-.53,.13v14.33l.95-.36c3.16-1.19,5.9-1.79,8.16-1.79,3.49,0,6.34,.81,8.47,2.41,2.25,1.63,3.36,3.88,3.36,6.87,0,3.28-2.56,7.85-4.7,11.1l-16.24,26.27v1.75h34.87l6.7-15.07h-17.97Z"/></g><path class="g" d="M79.1,81.69c-20.92,0-37.89,16.96-37.89,37.89s16.96,37.89,37.89,37.89c14.92,0,27.82-8.62,34-21.15h-35.6c-.91,0-1.44-1.19-.93-2.1l25.75-44.56h0c-6.41-5-14.47-7.96-23.23-7.96"/><path class="i" d="M136.22,32.03c-.35,0-.71,.19-.94,.58l-32.95,57.04c8.92,6.93,14.66,17.76,14.66,29.94,0,6.01-1.4,11.69-3.89,16.74h81.85c.9,0,1.44-1.19,.93-2.1l-10.59-18.33h-23.17c-.57,0-1.04-.46-1.04-1.02v-40.87l-23.93-41.39c-.22-.38-.57-.58-.93-.58"/><path class="k" d="M102.33,89.64h0l-25.75,44.57c-.51,.91,.02,2.1,.93,2.1h35.6c2.49-5.05,3.89-10.73,3.89-16.74,0-12.17-5.74-23-14.66-29.94"/><path class="h" d="M252.15,21.81h-90.03c-.57,0-1.04,.48-1.04,1.04v51.14l24.21,41.89h66.86c.57,0,1.04-.46,1.04-1.02V22.86c0-.57-.48-1.04-1.04-1.04"/><path class="f" d="M161.07,74v40.85c0,.57,.47,1.04,1.04,1.04h23.17l-24.21-41.89"/></g></g></svg>